<svg width="15" height="16" viewBox="0 0 15 16" fill="none" xmlns="http://www.w3.org/2000/svg">
<g clip-path="url(#clip0_835_2446)">
<path d="M11.0703 8.98285C10.1541 8.98285 9.33522 9.40697 8.79929 10.069L6.56912 8.78145C6.63854 8.53219 6.67582 8.26972 6.67582 7.99865C6.67582 7.72758 6.63854 7.46507 6.56912 7.21582L8.66445 6.00607C8.7777 6.17025 8.90721 6.32238 9.05081 6.45997C9.06136 6.4723 9.07337 6.48354 9.08668 6.4936C9.60798 6.97668 10.3052 7.2725 11.0702 7.2725C11.8354 7.2725 12.5326 6.97665 13.0539 6.49349C13.0671 6.48348 13.079 6.4723 13.0895 6.46006C13.6448 5.92804 13.9911 5.17949 13.9911 4.35154C13.9912 2.74098 12.6808 1.43066 11.0703 1.43066C9.45967 1.43066 8.14933 2.74098 8.14933 4.35157C8.14933 4.80118 8.25154 5.22738 8.4338 5.60825L6.40808 6.77781C5.94489 5.77521 4.92991 5.07772 3.75491 5.07772C2.14433 5.07772 0.833984 6.38806 0.833984 7.99865C0.833984 8.82657 1.1803 9.57512 1.73561 10.1071C1.74613 10.1194 1.75806 10.1306 1.77131 10.1406C2.29261 10.6237 2.98982 10.9195 3.75494 10.9195C4.52001 10.9195 5.21722 10.6237 5.73849 10.1407C5.7518 10.1306 5.76379 10.1194 5.77436 10.107C6.03744 9.85492 6.2535 9.55419 6.40814 9.21948L8.53802 10.4492C8.29089 10.8777 8.14939 11.3745 8.14939 11.9038C8.14939 12.7316 8.49565 13.4802 9.0509 14.0122C9.06145 14.0245 9.07346 14.0358 9.08677 14.0458C9.60801 14.5289 10.3052 14.8247 11.0703 14.8247C11.8353 14.8247 12.5324 14.5289 13.0538 14.0458C13.0671 14.0357 13.0792 14.0244 13.0898 14.012C13.6449 13.48 13.9912 12.7316 13.9912 11.9037C13.9912 10.2932 12.6808 8.98285 11.0703 8.98285ZM9.52147 6.26234C9.86402 5.74569 10.4419 5.43131 11.0696 5.43108C11.0698 5.43108 11.07 5.43111 11.0703 5.43111C11.0705 5.43111 11.0707 5.43108 11.0709 5.43108C11.6986 5.43131 12.2765 5.74566 12.6191 6.26231C12.1958 6.60607 11.6568 6.81261 11.0703 6.81261C10.4837 6.81261 9.94476 6.60607 9.52147 6.26234ZM10.1926 4.09351C10.1926 3.60955 10.5863 3.2158 11.0703 3.2158C11.5542 3.2158 11.9479 3.60955 11.9479 4.09351C11.9479 4.57725 11.5546 4.97085 11.0709 4.9712C11.0707 4.9712 11.0705 4.9712 11.0703 4.9712C11.07 4.9712 11.0698 4.9712 11.0696 4.9712C10.5859 4.97082 10.1926 4.57725 10.1926 4.09351ZM11.0703 1.89054C12.4273 1.89054 13.5313 2.99454 13.5313 4.35157C13.5313 4.95432 13.3131 5.50687 12.9521 5.93522C12.6886 5.56884 12.3273 5.29104 11.9147 5.12991C12.2154 4.88442 12.4079 4.51106 12.4079 4.09351C12.4079 3.35598 11.8078 2.75592 11.0703 2.75592C10.3328 2.75592 9.7327 3.35598 9.7327 4.09351C9.7327 4.51106 9.92513 4.88442 10.2258 5.12991C9.81324 5.29104 9.45191 5.56884 9.18849 5.93525C8.82742 5.5069 8.60924 4.95435 8.60924 4.35159C8.60921 2.99454 9.71324 1.89054 11.0703 1.89054ZM3.75491 5.5376C5.11194 5.5376 6.21594 6.64163 6.21594 7.99865C6.21594 8.60141 5.99775 9.15392 5.63672 9.58227C5.37329 9.21589 5.01197 8.9381 4.59934 8.77697C4.90007 8.53148 5.09251 8.15811 5.09251 7.74057C5.09251 7.00303 4.49245 6.40301 3.75491 6.40301C3.01738 6.40301 2.41732 7.00303 2.41732 7.74057C2.41732 8.15811 2.60975 8.5315 2.91049 8.77697C2.49786 8.9381 2.13654 9.21589 1.87311 9.5823C1.51205 9.15395 1.29386 8.60143 1.29386 7.99865C1.29386 6.64163 2.39789 5.5376 3.75491 5.5376ZM2.8772 7.74054C2.8772 7.25657 3.27095 6.86286 3.75491 6.86286C4.23888 6.86286 4.63263 7.25657 4.63263 7.74054C4.63263 8.22451 4.23888 8.61825 3.75491 8.61825C3.27095 8.61825 2.8772 8.22451 2.8772 7.74054ZM2.20612 9.90936C2.54879 9.39254 3.12695 9.07813 3.75491 9.07813C4.38288 9.07813 4.96104 9.39254 5.30371 9.90936C4.88041 10.2531 4.34143 10.4597 3.75491 10.4597C3.16839 10.4597 2.62941 10.2531 2.20612 9.90936ZM9.52147 13.8145C9.86402 13.2979 10.4419 12.9835 11.0696 12.9833C11.0698 12.9833 11.07 12.9833 11.0703 12.9833C11.0705 12.9833 11.0707 12.9833 11.0709 12.9833C11.6986 12.9835 12.2764 13.2978 12.619 13.8145C12.1958 14.1583 11.6568 14.3648 11.0703 14.3648C10.4837 14.3648 9.94476 14.1583 9.52147 13.8145ZM10.1926 11.6457C10.1926 11.1617 10.5863 10.768 11.0703 10.768C11.5542 10.768 11.9479 11.1617 11.9479 11.6457C11.9479 12.1294 11.5546 12.523 11.0709 12.5234C11.0707 12.5234 11.0705 12.5234 11.0703 12.5234C11.07 12.5234 11.0698 12.5234 11.0696 12.5234C10.5859 12.523 10.1926 12.1294 10.1926 11.6457ZM12.952 13.4874C12.6886 13.121 12.3273 12.8432 11.9147 12.6821C12.2154 12.4366 12.4078 12.0632 12.4078 11.6457C12.4078 10.9081 11.8078 10.3081 11.0703 10.3081C10.3327 10.3081 9.73267 10.9081 9.73267 11.6457C9.73267 12.0632 9.9251 12.4366 10.2258 12.6821C9.81321 12.8432 9.45188 13.121 9.18846 13.4874C8.8274 13.0591 8.60921 12.5065 8.60921 11.9037C8.60921 10.5467 9.71324 9.44273 11.0703 9.44273C12.4273 9.44273 13.5313 10.5467 13.5313 11.9037C13.5313 12.5065 13.3131 13.0591 12.952 13.4874Z" fill="white"/>
</g>
<defs>
<clipPath id="clip0_835_2446">
<rect width="14.7162" height="14.7162" fill="white" transform="translate(0.0546875 0.769531)"/>
</clipPath>
</defs>
</svg>
