<svg width="15" height="16" viewBox="0 0 15 16" fill="none" xmlns="http://www.w3.org/2000/svg">
<g clip-path="url(#clip0_836_3069)">
<path fill-rule="evenodd" clip-rule="evenodd" d="M13.5839 4.41715C13.0564 3.48979 12.3142 2.69117 11.429 2.09531L11.6014 1.81821C11.6682 1.71091 11.6355 1.56979 11.5283 1.50272C10.3528 0.767182 9.00053 0.378418 7.61769 0.378418C6.23482 0.378418 4.88253 0.767182 3.70704 1.50275C3.59988 1.56979 3.56721 1.71091 3.63395 1.81821L3.80631 2.09528C2.92111 2.69114 2.17898 3.48973 1.6515 4.41709C1.06811 5.44272 0.759766 6.60861 0.759766 7.78872V10.3127C0.759766 11.0998 1.40019 11.7402 2.18735 11.7402H2.19626C2.30892 12.0325 2.59256 12.2405 2.92403 12.2405H3.20747C3.63745 12.2405 3.98727 11.8907 3.98727 11.4607V8.54771C3.98727 8.11773 3.63745 7.76791 3.20747 7.76791H2.92403C2.59256 7.76791 2.30892 7.97592 2.19626 8.26816H2.18735C1.81357 8.26816 1.47307 8.41272 1.21832 8.64867V7.78872C1.21832 5.6497 2.27203 3.68384 4.04857 2.48471L4.21654 2.75471C4.24873 2.80644 4.30017 2.84324 4.35949 2.85696C4.41885 2.87066 4.48118 2.86023 4.53283 2.82793C5.45944 2.24815 6.52614 1.94173 7.61769 1.94173C8.70924 1.94173 9.77597 2.24815 10.7025 2.82793C10.7393 2.85095 10.7815 2.86287 10.8241 2.86287C10.8414 2.86287 10.8587 2.86092 10.8759 2.85696C10.9352 2.84324 10.9866 2.80641 11.0188 2.75471L11.1868 2.48474C12.9634 3.6839 14.0171 5.64976 14.0171 7.78875V8.64873C13.7623 8.41281 13.4218 8.26822 13.0481 8.26822H13.0392C12.9265 7.97595 12.6429 7.76797 12.3114 7.76797H12.028C11.598 7.76797 11.2481 8.11779 11.2481 8.54776V11.4608C11.2481 11.8907 11.598 12.2405 12.028 12.2405H12.3114C12.6429 12.2405 12.9265 12.0325 13.0392 11.7403H13.0481C13.1428 11.7403 13.2353 11.7308 13.3249 11.7131V12.6438C13.3249 13.3103 12.7827 13.8525 12.1162 13.8525H9.06909C9.02764 13.4686 8.70179 13.1688 8.30709 13.1688H6.92829C6.50565 13.1688 6.16179 13.5126 6.16179 13.9353V14.2282C6.16179 14.6509 6.50565 14.9948 6.92829 14.9948H8.30709C8.70179 14.9948 9.02764 14.6949 9.06909 14.311H12.1162C13.0355 14.311 13.7834 13.5631 13.7834 12.6438V11.5358C14.1979 11.2857 14.4756 10.8311 14.4756 10.3127V7.78881C14.4756 6.60864 14.1672 5.44275 13.5839 4.41715ZM2.92403 8.22646H3.20747C3.38462 8.22646 3.52872 8.37056 3.52872 8.54771V11.4607C3.52872 11.6378 3.38462 11.7819 3.20747 11.7819H2.92403C2.74689 11.7819 2.60279 11.6378 2.60279 11.4607V8.54771C2.60279 8.37056 2.74689 8.22646 2.92403 8.22646ZM2.14424 8.7278V11.2806C1.62986 11.2579 1.21832 10.8325 1.21832 10.3127V9.69574V9.6952C1.2186 9.17558 1.63004 8.75044 2.14424 8.7278ZM10.7487 2.32083C9.79623 1.77209 8.71872 1.48318 7.61769 1.48318C6.51663 1.48318 5.43912 1.77209 4.48668 2.32086L4.1461 1.77335C5.20174 1.16007 6.39706 0.836967 7.61769 0.836967C8.83829 0.836967 10.0336 1.16007 11.0893 1.77335L10.7487 2.32083ZM8.61506 14.2282C8.61506 14.398 8.47693 14.5361 8.30709 14.5361H6.92829C6.75848 14.5361 6.62034 14.398 6.62034 14.2282V13.9352C6.62034 13.7654 6.75848 13.6272 6.92829 13.6272H8.30709C8.47693 13.6272 8.61506 13.7654 8.61506 13.9352V14.2282ZM12.3114 11.7819H12.0279C11.8508 11.7819 11.7067 11.6378 11.7067 11.4607V8.54771C11.7067 8.37056 11.8508 8.22646 12.0279 8.22646H12.3114C12.4885 8.22646 12.6326 8.37056 12.6326 8.54771V11.4607C12.6326 11.6378 12.4885 11.7819 12.3114 11.7819ZM14.0171 10.3127C14.0171 10.8325 13.6055 11.2579 13.0911 11.2806V8.7278C13.6055 8.75047 14.0171 9.17589 14.0171 9.69571V10.3127ZM6.76376 10.6541C6.76376 10.7807 6.86641 10.8834 6.99303 10.8834H8.24235C8.36896 10.8834 8.47162 10.7807 8.47162 10.6541V10.21C8.77945 10.1307 9.07249 10.0093 9.34653 9.84738L9.66076 10.1616C9.75026 10.2511 9.89542 10.2511 9.98498 10.1616L10.8684 9.2782C10.9579 9.18867 10.9579 9.04351 10.8684 8.95398L10.5542 8.63973C10.7161 8.36558 10.8376 8.07256 10.9168 7.76482H11.3609C11.4875 7.76482 11.5902 7.66216 11.5902 7.53554V6.28623C11.5902 6.15961 11.4875 6.05695 11.3609 6.05695H10.9168C10.8375 5.74915 10.7161 5.45608 10.5542 5.18207L10.8684 4.86785C10.9579 4.77829 10.9579 4.63316 10.8684 4.54359L9.98501 3.6602C9.89548 3.57072 9.75032 3.5707 9.66079 3.6602L9.34651 3.97445C9.07238 3.81249 8.77937 3.69101 8.47162 3.61176V3.16757C8.47162 3.04096 8.36896 2.9383 8.24235 2.9383H6.99303C6.86641 2.9383 6.76376 3.04096 6.76376 3.16757V3.61168C6.45592 3.69098 6.16283 3.81244 5.88881 3.97433L5.57462 3.66011C5.48509 3.57064 5.33993 3.57061 5.2504 3.66011L4.36697 4.54348C4.32396 4.58647 4.2998 4.64479 4.2998 4.70561C4.2998 4.76642 4.32396 4.82471 4.36695 4.86773L4.6812 5.18195C4.51924 5.45611 4.39775 5.74918 4.31851 6.05687H3.87446C3.74785 6.05687 3.64519 6.15952 3.64519 6.28614V7.53546C3.64519 7.66208 3.74785 7.76473 3.87446 7.76473H4.31851C4.39781 8.07256 4.51927 8.36566 4.68117 8.6397L4.36697 8.95387C4.27744 9.04343 4.27744 9.18856 4.36697 9.27812L5.25037 10.1615C5.33996 10.251 5.48509 10.251 5.57462 10.1615L5.88881 9.84729C6.163 10.0092 6.45607 10.1308 6.76376 10.21V10.6541ZM5.98319 9.3653C5.89222 9.30457 5.77114 9.31658 5.69379 9.39387L5.4125 9.67519L4.85332 9.11602L5.13464 8.83473C5.21194 8.75741 5.22389 8.63623 5.16319 8.5453C4.94859 8.22377 4.80151 7.86894 4.72608 7.49063C4.7047 7.38342 4.61058 7.30618 4.50121 7.30618H4.10368V6.51541H4.50121C4.61055 6.51541 4.7047 6.43821 4.72608 6.33093C4.80142 5.95289 4.9485 5.59806 5.16322 5.2763C5.22389 5.18536 5.21194 5.06425 5.13464 4.9869L4.85329 4.70558L5.4125 4.14643L5.69379 4.42775C5.77111 4.50502 5.89222 4.51697 5.98322 4.45633C6.30472 4.24173 6.65955 4.09465 7.03791 4.01919C7.14513 3.99778 7.22233 3.90366 7.22233 3.79433V3.39676H8.0131V3.79435C8.0131 3.90369 8.09031 3.99783 8.19758 4.01921C8.57566 4.09459 8.93049 4.24167 9.25216 4.45636C9.34313 4.51708 9.46424 4.50508 9.54156 4.42778L9.82294 4.14643L10.3821 4.70561L10.1007 4.98693C10.0234 5.06425 10.0115 5.18542 10.0722 5.27636C10.2868 5.59789 10.4339 5.95269 10.5093 6.33096C10.5307 6.43818 10.6248 6.51541 10.7342 6.51541H11.1318V7.30618H10.7341C10.6248 7.30618 10.5306 7.38339 10.5092 7.49066C10.4339 7.86874 10.2868 8.22357 10.0721 8.5453C10.0115 8.63623 10.0234 8.75735 10.1007 8.83467L10.382 9.11602L9.82285 9.67516L9.54153 9.39387C9.46427 9.31661 9.34312 9.30463 9.25213 9.3653C8.9306 9.5799 8.57577 9.72698 8.19747 9.80244C8.09025 9.82382 8.01305 9.91794 8.01305 10.0273V10.4248H7.22228V10.0273C7.22228 9.91797 7.14507 9.82382 7.0378 9.80244C6.65981 9.7271 6.30498 9.58002 5.98319 9.3653ZM10.0634 6.91088C10.0634 5.56232 8.96625 4.46521 7.61769 4.46521C6.26915 4.46521 5.17204 5.56232 5.17204 6.91088C5.17204 8.25945 6.26915 9.35656 7.61769 9.35656C8.96625 9.35656 10.0634 8.25942 10.0634 6.91088ZM5.63059 6.91088C5.63059 5.81518 6.52201 4.92376 7.61769 4.92376C8.71339 4.92376 9.60481 5.81518 9.60481 6.91088C9.60481 8.00659 8.71342 8.89801 7.61769 8.89801C6.52201 8.89801 5.63059 8.00659 5.63059 6.91088ZM8.07051 6.32704C8.07051 6.07736 7.86737 5.87422 7.61769 5.87422C7.36801 5.87422 7.16487 6.07736 7.16487 6.32704C7.16487 6.45365 7.06221 6.55631 6.9356 6.55631C6.80898 6.55631 6.70632 6.45365 6.70632 6.32704C6.70632 5.82452 7.11518 5.41567 7.61769 5.41567C8.1202 5.41567 8.52906 5.82452 8.52906 6.32704C8.52906 6.68201 8.32062 7.00715 7.99803 7.15544C7.90202 7.19957 7.84696 7.28543 7.84696 7.39107V7.63115C7.84696 7.75777 7.74431 7.86043 7.61769 7.86043C7.49107 7.86043 7.38841 7.75777 7.38841 7.63115V7.39107C7.38841 7.10726 7.54862 6.85732 7.80653 6.73879C7.9669 6.6651 8.07051 6.50349 8.07051 6.32704ZM7.61769 8.37667C7.4993 8.37667 7.40274 8.28008 7.40274 8.16172C7.40274 8.04336 7.4993 7.94678 7.61769 7.94678C7.73608 7.94678 7.83263 8.04336 7.83263 8.16172C7.83263 8.28008 7.73611 8.37667 7.61769 8.37667Z" fill="white"/>
</g>
<defs>
<clipPath id="clip0_836_3069">
<rect width="14.6736" height="14.6736" fill="white" transform="translate(0.28125 0.349609)"/>
</clipPath>
</defs>
</svg>
