<svg width="16" height="17" viewBox="0 0 16 17" fill="none" xmlns="http://www.w3.org/2000/svg">
<g clip-path="url(#clip0_835_2433)">
<path d="M11.5455 7.70842V4.71508C11.5455 4.6294 11.5059 4.55024 11.4499 4.48761L8.09396 0.96354C8.03133 0.897651 7.94227 0.861328 7.85334 0.861328H2.53255C1.55025 0.861328 0.765625 1.66237 0.765625 2.64478V12.706C0.765625 13.6885 1.55025 14.4763 2.53255 14.4763H6.73251C7.52691 15.795 8.97091 16.6784 10.6158 16.6784C13.1146 16.6784 15.1552 14.6477 15.1552 12.1456C15.1586 9.95997 13.5894 8.13367 11.5455 7.70842ZM8.18302 2.01848L10.4346 4.38865H8.97416C8.53901 4.38865 8.18302 4.0294 8.18302 3.59425V2.01848ZM2.53255 13.817C1.91614 13.817 1.42499 13.3224 1.42499 12.706V2.64478C1.42499 2.025 1.91614 1.5207 2.53255 1.5207H7.52365V3.59425C7.52365 4.39529 8.17313 5.04802 8.97416 5.04802H10.8861V7.62262C10.7873 7.61936 10.7081 7.60946 10.6225 7.60946C9.47195 7.60946 8.41375 8.05125 7.61597 8.74356H3.42928C3.24791 8.74356 3.0996 8.89187 3.0996 9.07313C3.0996 9.2545 3.24791 9.40281 3.42928 9.40281H7.00282C6.76871 9.73249 6.57418 10.0622 6.42262 10.4248H3.42928C3.24791 10.4248 3.0996 10.5731 3.0996 10.7545C3.0996 10.9357 3.24791 11.0842 3.42928 11.0842H6.2083C6.12588 11.4139 6.08304 11.7797 6.08304 12.1456C6.08304 12.739 6.1984 13.3258 6.40608 13.8204H2.53255V13.817ZM10.6192 16.0224C8.48302 16.0224 6.74566 14.2851 6.74566 12.1489C6.74566 10.0127 8.47964 8.27535 10.6192 8.27535C12.7586 8.27535 14.4926 10.0127 14.4926 12.1489C14.4926 14.2851 12.7554 16.0224 10.6192 16.0224Z" fill="white"/>
<path d="M3.42929 7.75116H6.76873C6.9501 7.75116 7.09841 7.60273 7.09841 7.42148C7.09841 7.24011 6.9501 7.0918 6.76873 7.0918H3.42929C3.24792 7.0918 3.09961 7.24011 3.09961 7.42148C3.09961 7.60273 3.24792 7.75116 3.42929 7.75116Z" fill="white"/>
<path d="M10.5104 10.1149C10.5368 10.1214 10.5631 10.1248 10.5896 10.1248C10.6225 10.1248 10.6522 10.1214 10.6819 10.1116C11.117 10.1479 11.4566 10.5105 11.4566 10.9523C11.4566 11.1335 11.6049 11.2819 11.7862 11.2819C11.9676 11.2819 12.1159 11.1335 12.1159 10.9523C12.1159 10.227 11.6017 9.6204 10.9193 9.47861V9.26767C10.9193 9.0863 10.7708 8.93799 10.5896 8.93799C10.4082 8.93799 10.2599 9.0863 10.2599 9.26767V9.49189C9.60052 9.65009 9.10938 10.2468 9.10938 10.9523C9.10938 11.783 9.78515 12.4555 10.6126 12.4555C11.0775 12.4555 11.4566 12.8346 11.4566 13.2994C11.4566 13.7643 11.0807 14.1467 10.6126 14.1467C10.1478 14.1467 9.76874 13.7675 9.76874 13.3027C9.76874 13.1214 9.62031 12.973 9.43906 12.973C9.25768 12.973 9.10938 13.1214 9.10938 13.3027C9.10938 14.0115 9.60052 14.6049 10.2599 14.7631V15.1027C10.2599 15.284 10.4082 15.4323 10.5896 15.4323C10.7708 15.4323 10.9193 15.284 10.9193 15.1027V14.773C11.6017 14.6312 12.1159 14.0247 12.1159 13.2994C12.1159 12.4687 11.4401 11.7962 10.6126 11.7962C10.1478 11.7962 9.76874 11.417 9.76874 10.9523C9.76874 10.5237 10.0918 10.1644 10.5104 10.1149Z" fill="white"/>
</g>
<defs>
<clipPath id="clip0_835_2433">
<rect width="15.8171" height="15.8171" fill="white" transform="translate(0.0546875 0.861328)"/>
</clipPath>
</defs>
</svg>
