<svg width="19" height="18" viewBox="0 0 19 18" fill="none" xmlns="http://www.w3.org/2000/svg">
<path d="M4.07768 11.109C3.8438 11.109 3.6542 10.9194 3.6542 10.6855V8.14464C3.6542 7.91076 3.8438 7.72116 4.07768 7.72116C4.31156 7.72116 4.50116 7.91076 4.50116 8.14464V10.6855C4.50116 10.9194 4.31156 11.109 4.07768 11.109ZM14.3767 14.7848H4.92464C4.22412 14.7848 3.6542 14.2149 3.6542 13.5144V13.2264C3.6542 12.9925 3.8438 12.8029 4.07768 12.8029C4.31156 12.8029 4.50116 12.9925 4.50116 13.2264V13.5144C4.50116 13.7479 4.69114 13.9378 4.92464 13.9378H14.3767C14.6102 13.9378 14.8002 13.7479 14.8002 13.5144V10.3129C14.8002 10.079 14.9898 9.88938 15.2237 9.88938C15.4576 9.88938 15.6472 10.079 15.6472 10.3129V13.5144C15.6472 14.2149 15.0772 14.7848 14.3767 14.7848ZM15.2237 8.22934C14.9898 8.22934 14.8002 8.03974 14.8002 7.80586V4.70599C14.8002 4.47248 14.6102 4.28251 14.3767 4.28251H4.92464C4.69114 4.28251 4.50116 4.47248 4.50116 4.70599V5.7054C4.50116 5.93928 4.31156 6.12888 4.07768 6.12888C3.8438 6.12888 3.6542 5.93928 3.6542 5.7054V4.70599C3.6542 4.00547 4.22412 3.43555 4.92464 3.43555H14.3767C15.0772 3.43555 15.6472 4.00547 15.6472 4.70599V7.80586C15.6472 8.03974 15.4576 8.22934 15.2237 8.22934ZM4.87382 7.28074H3.21378C3.02667 7.28074 2.875 7.12907 2.875 6.94196C2.875 6.75485 3.02667 6.60318 3.21378 6.60318H4.87382C5.06094 6.60318 5.21261 6.75485 5.21261 6.94196C5.21261 7.12907 5.06094 7.28074 4.87382 7.28074ZM4.87382 12.2439H3.21378C3.02667 12.2439 2.875 12.0923 2.875 11.9051C2.875 11.718 3.02667 11.5664 3.21378 11.5664H4.87382C5.06094 11.5664 5.21261 11.718 5.21261 11.9051C5.21261 12.0923 5.06094 12.2439 4.87382 12.2439Z" fill="white"/>
<path d="M12.2599 7.34891H7.04262C6.80874 7.34891 6.61914 7.15931 6.61914 6.92543C6.61914 6.69155 6.80874 6.50195 7.04262 6.50195H12.2599C12.4938 6.50195 12.6834 6.69155 12.6834 6.92543C12.6834 7.15931 12.4938 7.34891 12.2599 7.34891ZM12.2599 9.8051H7.04262C6.80874 9.8051 6.61914 9.6155 6.61914 9.38162C6.61914 9.14774 6.80874 8.95814 7.04262 8.95814H12.2599C12.4938 8.95814 12.6834 9.14774 12.6834 9.38162C12.6834 9.6155 12.4938 9.8051 12.2599 9.8051ZM12.2599 12.2613H7.04262C6.80874 12.2613 6.61914 12.0717 6.61914 11.8378C6.61914 11.6039 6.80874 11.4143 7.04262 11.4143H12.2599C12.4938 11.4143 12.6834 11.6039 12.6834 11.8378C12.6834 12.0717 12.4938 12.2613 12.2599 12.2613ZM15.2243 10.7029C14.3369 10.7029 13.615 9.98098 13.615 9.09365C13.615 8.20632 14.3369 7.48443 15.2243 7.48443C16.1116 7.48443 16.8335 8.20632 16.8335 9.09365C16.8335 9.98098 16.1116 10.7029 15.2243 10.7029ZM15.2243 8.33139C14.8039 8.33139 14.462 8.67334 14.462 9.09365C14.462 9.51396 14.8039 9.85591 15.2243 9.85591C15.6446 9.85591 15.9865 9.51396 15.9865 9.09365C15.9865 8.67334 15.6446 8.33139 15.2243 8.33139Z" fill="white"/>
</svg>
