<svg width="14" height="15" viewBox="0 0 14 15" fill="none" xmlns="http://www.w3.org/2000/svg">
<g clip-path="url(#clip0_836_3019)">
<path d="M12.6871 10.2127C13.0191 9.88068 13.1878 9.46191 13.1748 9.00167L13.0485 4.54446C13.0368 4.12907 12.6223 3.75691 12.1751 3.75691C12.1709 3.75691 12.1665 3.75694 12.1622 3.75702C11.9433 3.76053 11.2293 3.88052 11.2345 5.27682L11.2438 7.69807C11.2441 7.7957 11.2336 7.88843 11.2117 7.97778C11.1787 7.92616 11.1388 7.87664 11.0921 7.8299C10.7903 7.52809 10.2955 7.52482 9.96549 7.82236C9.95842 7.82871 9.95181 7.83554 9.94569 7.84279C9.5525 8.30767 9.07087 8.7136 8.68385 9.03974C8.54896 9.15343 8.42157 9.26079 8.31734 9.35476C7.89143 9.73862 7.83472 10.2721 7.83543 10.7433L7.83812 12.5164L7.63521 12.5146C7.63368 12.5146 7.63215 12.5146 7.63062 12.5146C7.49404 12.5146 7.36514 12.5675 7.26722 12.6637C7.16819 12.7611 7.11298 12.8908 7.11179 13.0291L7.10599 13.7036C7.10357 13.9898 7.33437 14.2245 7.62049 14.227L11.1243 14.2571C11.1259 14.2571 11.1274 14.2571 11.1289 14.2571C11.4129 14.2571 11.6453 14.0272 11.6478 13.7426L11.6536 13.0681C11.656 12.782 11.4252 12.5472 11.1391 12.5447L10.7328 12.5412V12.167L12.6871 10.2127ZM11.2317 13.0644L11.2259 13.739C11.2254 13.7913 11.181 13.8353 11.1287 13.8353C11.1284 13.8353 11.1281 13.8353 11.1279 13.8353L7.62405 13.8051C7.5714 13.8047 7.52732 13.7598 7.52777 13.7072L7.53357 13.0327C7.53386 12.9981 7.55205 12.9751 7.56286 12.9645C7.57359 12.954 7.59658 12.9364 7.63062 12.9364H7.63149L11.1353 12.9665C11.188 12.9669 11.2321 13.0118 11.2317 13.0644ZM8.25994 12.5199L8.25725 10.7426C8.25667 10.3454 8.29773 9.94029 8.59974 9.66809C8.69875 9.57884 8.81782 9.47849 8.95568 9.3623C9.35159 9.02864 9.84352 8.61407 10.2576 8.12714C10.4228 7.98598 10.6512 7.98561 10.7937 8.12815C10.9666 8.30103 10.9124 8.48646 10.8224 8.62308C10.5943 8.88513 10.3654 9.10747 10.1254 9.34055C10.0217 9.44127 9.9145 9.54541 9.80374 9.65617C9.72134 9.73854 9.72137 9.87208 9.80374 9.95445C9.8861 10.0368 10.0196 10.0368 10.102 9.95445C10.2106 9.84585 10.3167 9.74281 10.4193 9.64312C10.6483 9.4207 10.8676 9.20772 11.0886 8.95919C11.1043 8.94751 11.1185 8.93341 11.1309 8.91704C11.1399 8.90512 11.1486 8.89312 11.157 8.8811C11.2021 8.82892 11.2473 8.77508 11.2927 8.71916C11.545 8.40855 11.667 8.07399 11.6656 7.69638L11.6563 5.27513C11.6537 4.59379 11.8454 4.18391 12.1689 4.17874C12.3893 4.17558 12.6214 4.36575 12.6268 4.55632L12.7531 9.01351C12.7629 9.35974 12.6403 9.66282 12.3888 9.91432L10.3727 11.9304C10.3331 11.97 10.3109 12.0236 10.3109 12.0796V12.5375L8.25994 12.5199ZM7.76131 13.2962C7.80408 13.1886 7.92594 13.1361 8.03351 13.1788C8.14109 13.2216 8.19361 13.3435 8.15084 13.451C8.10808 13.5586 7.98621 13.6111 7.87864 13.5684C7.77107 13.5256 7.71855 13.4037 7.76131 13.2962ZM6.34589 12.6637C6.24686 12.5663 6.11588 12.5134 5.97788 12.5146L5.77497 12.5163L5.77766 10.7432C5.77837 10.2721 5.72166 9.73859 5.29575 9.35476C5.1915 9.26079 5.06407 9.15338 4.92918 9.03969C4.54219 8.71352 4.06056 8.30762 3.6674 7.84276C3.66125 7.83551 3.65464 7.82868 3.6476 7.82233C3.31763 7.52476 2.82274 7.52809 2.52101 7.82987C2.47427 7.87662 2.43435 7.92613 2.40137 7.97778C2.37943 7.88843 2.36894 7.79567 2.36931 7.69807L2.37853 5.27682C2.38381 3.88052 1.6698 3.76053 1.45083 3.75702C0.999156 3.74935 0.576355 4.12509 0.56449 4.54446L0.438198 9.0017C0.4252 9.46191 0.593862 9.88068 0.925939 10.2127L2.88025 12.167V12.5412L2.474 12.5447C2.18786 12.5472 1.95708 12.782 1.95953 13.0681L1.9653 13.7426C1.96781 14.0272 2.20014 14.2571 2.48423 14.2571C2.48574 14.2571 2.48727 14.2571 2.48877 14.2571L5.99262 14.227C6.27874 14.2245 6.50955 13.9897 6.50712 13.7036L6.50132 13.029C6.50011 12.8908 6.44492 12.761 6.34589 12.6637ZM3.30213 12.0796C3.30213 12.0237 3.2799 11.97 3.24035 11.9305L1.22424 9.91437C0.972711 9.66287 0.850137 9.3598 0.859892 9.01359L0.986184 4.55635C0.991536 4.36752 1.21844 4.17874 1.43796 4.17874C1.43999 4.17874 1.44205 4.17874 1.44408 4.17877C1.76761 4.18396 1.95927 4.59384 1.95668 5.27516L1.94745 7.69641C1.94603 8.07402 2.068 8.40857 2.32032 8.71919C2.36572 8.77503 2.41091 8.82889 2.45597 8.88105C2.46435 8.89309 2.47305 8.90509 2.48207 8.91701C2.49446 8.93343 2.50878 8.94751 2.52447 8.95922C2.74541 9.20772 2.9647 9.4207 3.19368 9.64312C3.2963 9.74278 3.4024 9.84582 3.511 9.95445C3.59336 10.0368 3.7269 10.0368 3.80927 9.95445C3.89164 9.87208 3.89166 9.73854 3.80927 9.65617C3.69851 9.54541 3.59128 9.44127 3.48758 9.34055C3.2476 9.10747 3.01867 8.88511 2.79058 8.62306C2.70064 8.4864 2.64641 8.301 2.81929 8.12815C2.96177 7.98566 3.1902 7.98595 3.35541 8.12714C3.76949 8.61401 4.26139 9.02859 4.65727 9.36225C4.79514 9.47844 4.91423 9.57879 5.01326 9.66809C5.31528 9.94026 5.35636 10.3454 5.35575 10.7426L5.35307 12.5199L3.3021 12.5375L3.30213 12.0796ZM5.98898 13.8051L2.48513 13.8353C2.43156 13.8365 2.38766 13.7916 2.38718 13.739L2.38141 13.0645C2.38096 13.0118 2.42504 12.967 2.4777 12.9665L5.98155 12.9364H5.98242C6.01648 12.9364 6.03947 12.954 6.05018 12.9645C6.06099 12.9752 6.07918 12.9982 6.07947 13.0327L6.08527 13.7072C6.08574 13.7598 6.04163 13.8047 5.98898 13.8051ZM5.85175 13.2962C5.89451 13.4037 5.84199 13.5256 5.73442 13.5684C5.62685 13.6111 5.50498 13.5586 5.46222 13.451C5.41945 13.3435 5.47197 13.2216 5.57955 13.1788C5.68712 13.1361 5.80898 13.1886 5.85175 13.2962ZM3.19587 5.60075L3.68003 5.7871C3.75111 6.04551 3.85388 6.29348 3.98663 6.52674L3.77592 7.00117C3.74048 7.08092 3.75783 7.17423 3.81953 7.23593L4.4961 7.91247C4.55782 7.97417 4.65113 7.99154 4.73086 7.95608L5.20547 7.74529C5.43875 7.87804 5.68662 7.98079 5.94487 8.05182L6.13128 8.53613C6.1626 8.61757 6.24085 8.67128 6.32812 8.67128H7.28491C7.37218 8.67128 7.45041 8.61755 7.48176 8.53613L7.66811 8.05197C7.92652 7.98092 8.17446 7.87815 8.40775 7.74537L8.88217 7.95608C8.9619 7.99152 9.05524 7.9742 9.11694 7.91247L9.79348 7.2359C9.85518 7.17421 9.87253 7.0809 9.83712 7.00114L9.62632 6.52653C9.75907 6.29327 9.86182 6.04538 9.93288 5.78713L10.4172 5.60072C10.4986 5.5694 10.5523 5.49115 10.5523 5.40388V4.44709C10.5523 4.35982 10.4986 4.28159 10.4172 4.25024L9.93303 4.06389C9.86198 3.80551 9.7592 3.55754 9.62643 3.32425L9.83714 2.84983C9.87258 2.7701 9.85523 2.67676 9.79353 2.61507L9.11696 1.93852C9.05527 1.87682 8.96198 1.85948 8.8822 1.89489L8.40759 2.10568C8.17433 1.97293 7.92644 1.87015 7.66819 1.79912L7.48178 1.31481C7.45041 1.23342 7.37218 1.17969 7.28491 1.17969H6.32812C6.24085 1.17969 6.16263 1.23342 6.13128 1.31484L5.94484 1.79915C5.68659 1.87018 5.4387 1.97295 5.20544 2.10571L4.73083 1.89491C4.6511 1.85953 4.55777 1.87682 4.49607 1.93855L3.8195 2.61509C3.75781 2.67679 3.74046 2.7701 3.77589 2.84985L3.98666 3.32441C3.85391 3.55769 3.75113 3.80558 3.68008 4.06389L3.19582 4.2503C3.1144 4.28162 3.06067 4.35987 3.06067 4.44714V5.40393C3.06069 5.49117 3.11443 5.56943 3.19587 5.60075ZM3.48255 4.59194L3.93311 4.41851C3.99802 4.39354 4.04643 4.33815 4.06254 4.27049C4.13165 3.9801 4.24623 3.70366 4.40319 3.4488C4.43965 3.38956 4.44458 3.31616 4.41634 3.25259L4.22021 2.81096L4.692 2.33923L5.13365 2.53539C5.19724 2.5636 5.27062 2.5587 5.32984 2.52221C5.58471 2.36528 5.86113 2.25066 6.15147 2.18159C6.21913 2.16548 6.2745 2.11707 6.29946 2.05216L6.47295 1.60154H7.14008L7.31354 2.05216C7.33851 2.11707 7.39388 2.16548 7.46153 2.18159C7.75187 2.25069 8.02829 2.36528 8.28317 2.52221C8.34239 2.55867 8.41579 2.56363 8.47936 2.53539L8.92104 2.33923L9.3928 2.81096L9.19672 3.25246C9.16848 3.31603 9.17341 3.38945 9.2099 3.44867C9.36686 3.70352 9.48147 3.98002 9.55057 4.27049C9.56666 4.33815 9.61509 4.39354 9.68 4.41851L10.1305 4.59192V5.25905L9.67984 5.43251C9.61493 5.45748 9.56652 5.51285 9.55042 5.58053C9.48131 5.87084 9.36672 6.14729 9.2098 6.40216C9.17333 6.46141 9.1684 6.53478 9.19661 6.59835L9.39277 7.04003L8.92106 7.51179L8.47957 7.31571C8.416 7.28745 8.34255 7.29238 8.28336 7.32889C8.02853 7.48585 7.75203 7.60046 7.46153 7.66957C7.39388 7.68565 7.33849 7.73408 7.31352 7.799L7.14011 8.24948H6.47295L6.29949 7.79884C6.27452 7.73392 6.21915 7.68552 6.15147 7.66941C5.86116 7.6003 5.58474 7.48572 5.32984 7.32879C5.27062 7.29233 5.19722 7.28742 5.13365 7.31563L4.69197 7.51179L4.22021 7.04006L4.41632 6.59859C4.44455 6.53499 4.43962 6.46159 4.40316 6.40235C4.2462 6.14752 4.13159 5.87103 4.06246 5.5805C4.04635 5.51285 3.99794 5.45745 3.93303 5.43248L3.48255 5.25908V4.59194ZM6.80653 7.04994C7.97793 7.04994 8.93095 6.09693 8.93095 4.9255C8.93095 3.75409 7.97793 2.80108 6.80653 2.80108C5.63513 2.80108 4.68211 3.75409 4.68211 4.9255C4.68211 6.09693 5.6351 7.04994 6.80653 7.04994ZM6.04881 6.44954C5.93266 6.39156 5.82383 6.32101 5.72461 6.23914V5.03758H6.04881V6.44954ZM6.47066 6.59466V4.69915H7.0583V6.60935C6.97612 6.62158 6.89209 6.62809 6.80653 6.62809C6.69155 6.62809 6.57928 6.61649 6.47066 6.59466ZM7.48012 5.0376H7.80432V6.30379C7.70389 6.37669 7.59534 6.43902 7.48012 6.48885V5.0376ZM6.80653 3.22295C7.74534 3.22295 8.5091 3.98672 8.5091 4.92552C8.5091 5.27213 8.40474 5.59469 8.22619 5.86393V4.82668C8.22619 4.71019 8.13175 4.61575 8.01527 4.61575H7.48015V4.48822C7.48015 4.37174 7.38571 4.27729 7.26922 4.27729H6.97538V4.10608C6.97538 3.98959 6.88093 3.89515 6.76445 3.89515C6.64797 3.89515 6.55352 3.98959 6.55352 4.10608V4.27729H6.25973C6.14325 4.27729 6.04881 4.37174 6.04881 4.48822V4.61575H5.51369C5.3972 4.61575 5.30276 4.71019 5.30276 4.82668V5.72274C5.17607 5.48474 5.10396 5.21344 5.10396 4.92552C5.10396 3.98672 5.86772 3.22295 6.80653 3.22295Z" fill="white"/>
</g>
<defs>
<clipPath id="clip0_836_3019">
<rect width="13.4993" height="13.4993" fill="white" transform="translate(0.0566406 0.96875)"/>
</clipPath>
</defs>
</svg>
